<!-- <svg width="183" height="36" viewBox="0 0 183 36" fill="none" xmlns="http://www.w3.org/2000/svg">
    <circle cx="14" cy="20" r="14" fill="#8A70D6" />
    <circle cx="34" cy="14" r="14" fill="#E9E3FF" />
    <path
        d="M79.408 28L84.976 10.24H89.464L95.032 28H91.336L90.208 24.28H84.16L83.056 28H79.408ZM85 21.088H89.368L87.184 13.288L85 21.088ZM101.345 28.144C100.561 28.144 99.8329 28.04 99.1609 27.832C98.5049 27.624 97.9369 27.28 97.4569 26.8C96.9769 26.304 96.6009 25.64 96.3289 24.808C96.0729 23.96 95.9449 22.896 95.9449 21.616C95.9449 20.304 96.0649 19.216 96.3049 18.352C96.5449 17.488 96.8969 16.808 97.3609 16.312C97.8409 15.8 98.4249 15.44 99.1129 15.232C99.8009 15.024 100.577 14.92 101.441 14.92C102.225 14.92 102.969 14.968 103.673 15.064C104.393 15.144 105.145 15.296 105.929 15.52V17.56H102.545C101.809 17.56 101.217 17.672 100.769 17.896C100.321 18.104 99.9929 18.504 99.7849 19.096C99.5929 19.672 99.4969 20.504 99.4969 21.592C99.4969 22.664 99.5929 23.48 99.7849 24.04C99.9929 24.6 100.321 24.976 100.769 25.168C101.233 25.36 101.841 25.456 102.593 25.456H106.121V27.472C105.721 27.6 105.257 27.72 104.729 27.832C104.201 27.928 103.641 28 103.049 28.048C102.473 28.112 101.905 28.144 101.345 28.144ZM110.831 28.144C109.855 28.144 109.063 27.856 108.455 27.28C107.847 26.704 107.543 25.904 107.543 24.88V23.728C107.543 22.752 107.887 21.952 108.575 21.328C109.263 20.688 110.335 20.368 111.791 20.368H115.079V19.48C115.079 19.08 115.007 18.752 114.863 18.496C114.719 18.224 114.447 18.032 114.047 17.92C113.663 17.792 113.071 17.728 112.271 17.728H108.407V15.664C109.031 15.472 109.751 15.304 110.567 15.16C111.399 15.016 112.399 14.944 113.567 14.944C114.639 14.944 115.551 15.072 116.303 15.328C117.071 15.584 117.647 16.024 118.031 16.648C118.431 17.272 118.631 18.136 118.631 19.24V28H115.823L115.247 26.632C115.135 26.76 114.943 26.904 114.671 27.064C114.399 27.224 114.063 27.392 113.663 27.568C113.279 27.728 112.839 27.864 112.343 27.976C111.863 28.088 111.359 28.144 110.831 28.144ZM112.631 25.672C112.791 25.672 112.967 25.656 113.159 25.624C113.367 25.576 113.575 25.528 113.783 25.48C114.007 25.416 114.207 25.36 114.383 25.312C114.575 25.248 114.727 25.192 114.839 25.144C114.967 25.096 115.047 25.064 115.079 25.048V22.048L112.919 22.192C112.295 22.24 111.831 22.4 111.527 22.672C111.239 22.944 111.095 23.312 111.095 23.776V24.304C111.095 24.624 111.159 24.888 111.287 25.096C111.431 25.304 111.615 25.456 111.839 25.552C112.079 25.632 112.343 25.672 112.631 25.672ZM125.514 28.144C124.506 28.144 123.658 27.936 122.97 27.52C122.282 27.088 121.762 26.4 121.41 25.456C121.074 24.496 120.906 23.24 120.906 21.688C120.906 20.088 121.05 18.792 121.338 17.8C121.642 16.808 122.146 16.08 122.85 15.616C123.554 15.152 124.522 14.92 125.754 14.92C126.346 14.92 126.93 14.984 127.506 15.112C128.082 15.224 128.594 15.36 129.042 15.52V9.688H132.618V28H129.618L129.042 26.776C128.77 27.032 128.434 27.264 128.034 27.472C127.65 27.68 127.242 27.848 126.81 27.976C126.378 28.088 125.946 28.144 125.514 28.144ZM126.762 25.288C127.242 25.288 127.674 25.208 128.058 25.048C128.458 24.888 128.786 24.728 129.042 24.568V18.088C128.722 17.976 128.386 17.864 128.034 17.752C127.682 17.64 127.306 17.584 126.906 17.584C126.314 17.584 125.834 17.688 125.466 17.896C125.114 18.104 124.858 18.496 124.698 19.072C124.538 19.632 124.458 20.448 124.458 21.52C124.458 22.512 124.53 23.288 124.674 23.848C124.834 24.392 125.082 24.768 125.418 24.976C125.754 25.184 126.202 25.288 126.762 25.288ZM140.706 28.12C139.282 28.12 138.146 27.936 137.298 27.568C136.45 27.184 135.834 26.512 135.45 25.552C135.082 24.592 134.898 23.264 134.898 21.568C134.898 19.824 135.074 18.472 135.426 17.512C135.778 16.552 136.37 15.88 137.202 15.496C138.034 15.112 139.162 14.92 140.586 14.92C141.866 14.92 142.89 15.048 143.658 15.304C144.426 15.56 144.978 16.008 145.314 16.648C145.666 17.288 145.842 18.192 145.842 19.36C145.842 20.224 145.666 20.912 145.314 21.424C144.978 21.92 144.498 22.28 143.874 22.504C143.25 22.712 142.514 22.816 141.666 22.816H138.426C138.458 23.472 138.554 24 138.714 24.4C138.89 24.784 139.202 25.064 139.65 25.24C140.114 25.4 140.778 25.48 141.642 25.48H145.41V27.568C144.786 27.696 144.098 27.824 143.346 27.952C142.61 28.064 141.73 28.12 140.706 28.12ZM138.378 20.704H141.306C141.786 20.704 142.138 20.608 142.362 20.416C142.586 20.224 142.698 19.88 142.698 19.384C142.698 18.92 142.626 18.552 142.482 18.28C142.338 17.992 142.114 17.792 141.81 17.68C141.506 17.552 141.098 17.488 140.586 17.488C140.042 17.488 139.61 17.584 139.29 17.776C138.97 17.952 138.738 18.272 138.594 18.736C138.45 19.2 138.378 19.856 138.378 20.704ZM148.173 28V15.112H151.101L151.725 16.432C152.285 16.016 152.893 15.656 153.549 15.352C154.221 15.048 155.045 14.896 156.021 14.896C156.837 14.896 157.509 15.064 158.037 15.4C158.581 15.736 158.989 16.176 159.261 16.72C159.629 16.432 160.053 16.152 160.533 15.88C161.029 15.608 161.557 15.376 162.117 15.184C162.677 14.992 163.229 14.896 163.773 14.896C164.813 14.896 165.629 15.096 166.221 15.496C166.829 15.88 167.253 16.432 167.493 17.152C167.733 17.856 167.853 18.688 167.853 19.648V28H164.301V19.96C164.301 19.544 164.221 19.2 164.061 18.928C163.917 18.656 163.709 18.448 163.437 18.304C163.165 18.16 162.837 18.088 162.453 18.088C161.973 18.088 161.485 18.192 160.989 18.4C160.509 18.592 160.077 18.824 159.693 19.096C159.725 19.256 159.749 19.416 159.765 19.576C159.781 19.72 159.789 19.872 159.789 20.032V28H156.237V19.96C156.237 19.544 156.157 19.2 155.997 18.928C155.853 18.656 155.645 18.448 155.373 18.304C155.101 18.16 154.773 18.088 154.389 18.088C154.053 18.088 153.725 18.128 153.405 18.208C153.101 18.288 152.805 18.4 152.517 18.544C152.245 18.688 151.981 18.856 151.725 19.048V28H148.173ZM174.541 33.688L175.933 28C175.213 28 174.581 27.864 174.037 27.592C173.493 27.32 173.037 26.936 172.669 26.44C172.317 25.928 172.045 25.296 171.853 24.544L169.429 15.112H173.125L175.165 23.824C175.245 24.128 175.349 24.368 175.477 24.544C175.605 24.72 175.741 24.848 175.885 24.928C176.029 24.992 176.157 25.04 176.269 25.072C176.397 25.088 176.493 25.096 176.557 25.096L178.885 15.112H182.485L178.645 31.312L177.493 33.688H174.541Z"
        fill="#424040" />
</svg> -->

<svg width="48" height="34" viewBox="0 0 48 34" fill="none" xmlns="http://www.w3.org/2000/svg">
    <circle cx="14" cy="20" r="14" fill="#8A70D6" />
    <circle cx="34" cy="14" r="14" fill="#E9E3FF" />
</svg>